
        <svg xmlns="http://www.w3.org/2000/svg" xmlns:xlink="http://www.w3.org/1999/xlink" version="1.1" width="3181.8181818181824" 
        height="1309.0909090909092" viewBox="0 0 3181.8181818181824 1309.0909090909092">
			<rect fill="#ffffff" width="3181.8181818181824" height="1309.0909090909092"/>
			<g transform="scale(9.090909090909092) translate(10, 10)">
				<defs id="SvgjsDefs1519"></defs><g id="SvgjsG1520" featureKey="symbolContainer" transform="matrix(1,0,0,1,0,0)" fill="#8dc6ff"><rect width="110" height="124" rx="8"></rect></g><g id="SvgjsG1521" featureKey="monogramFeature-0" transform="matrix(2.1328458455482298,0,0,2.1328458455482298,19.999998093087214,-19.506358758682154)" fill="#ffffff"><path d="M0.72 16.560000000000002 l0 0 c0.06 -0.06 30.72 -0.48 30.84 -0.36 c0.9 0.78 1.26 10.38 1.26 20.28 c-1.32 1.26 -2.76 1.44 -3 1.44 c-0.84 0.06 -1.56 0.66 -1.8 1.56 c-0.24 1.08 0.42 2.16 1.5 2.4 c1.44 0.36 2.46 1.2 3.24 2.34 c-0.18 7.86 -0.54 14.34 -1.02 14.82 c-6.24 0.66 -12.3 -8.58 -13.86 -12 c-0.48 -1.02 -1.68 -1.44 -2.64 -0.96 c-1.02 0.42 -1.5 1.62 -1.02 2.64 c0 0 2.94 6.42 7.56 11.22 c-8.94 0.24 -20.76 0 -21.24 -0.9 c-1.2 -2.16 -0.06 -42.42 0.18 -42.48 z M14.34 24.9 l-0.36 6.18 c-0.12 1.14 0.78 2.1 1.86 2.16 c1.14 0.12 2.1 -0.78 2.16 -1.86 l0.36 -6.18 c0.12 -1.14 -0.78 -2.1 -1.86 -2.16 s-2.04 0.78 -2.16 1.86 z"></path></g><g id="SvgjsG1522" featureKey="nameFeature-0" transform="matrix(0.7828402038901195,0,0,0.7828402038901195,128.12118231614437,41.82511334794151)" fill="#22313f"><path d="M24.44 40 l-6.2 0 l-5.96 -9.32 l-0.08 0 l-3.96 0 l0 9.32 l-5.84 0 l0 -28 l9.8 0 c6.28 0 10.36 3.8 10.36 9.52 c0 3.8 -1.84 6.64 -4.96 8.08 z M8.24 17.36 l0 8.28 l3.6 0 c2.88 0 4.88 -1.12 4.88 -4.12 c0 -2.96 -2 -4.16 -4.88 -4.16 l-3.6 0 z M37.96 18.84 c4.72 0 11.24 3.56 10 12.76 l-15.12 0 c0.72 2.6 2.88 3.96 5.68 3.96 c2.6 0 3.6 -0.6 5.08 -1.4 l3.16 3.08 c-1.8 1.88 -4.36 3.16 -8.44 3.16 c-5.2 0 -11.28 -3.56 -11.28 -10.72 c0 -7.28 6.2 -10.84 10.92 -10.84 z M37.96 23.72 c-2.08 0 -4.28 1.28 -5.04 3.84 l10 0 c-0.64 -2.56 -2.92 -3.84 -4.96 -3.84 z M74.16 19.12 l-9.32 20.88 l-5 0 l-9.32 -20.88 l5.72 0 l6.08 14 l6.12 -14 l5.72 0 z M82.96 11.719999999999999 l0 4.88 l-5.72 0 l0 -4.88 l5.72 0 z M82.96 19.2 l0 20.8 l-5.72 0 l0 -20.8 l5.72 0 z M97.35999999999999 18.84 c4.72 0 11.24 3.56 10 12.76 l-15.12 0 c0.72 2.6 2.88 3.96 5.68 3.96 c2.6 0 3.6 -0.6 5.08 -1.4 l3.16 3.08 c-1.8 1.88 -4.36 3.16 -8.44 3.16 c-5.2 0 -11.28 -3.56 -11.28 -10.72 c0 -7.28 6.2 -10.84 10.92 -10.84 z M97.35999999999999 23.72 c-2.08 0 -4.28 1.28 -5.04 3.84 l10 0 c-0.64 -2.56 -2.92 -3.84 -4.96 -3.84 z M140.2 19.12 l5.68 0 l-7.52 20.88 l-5.48 0 l-4.96 -13.92 l-5 13.92 l-5.48 0 l-7.52 -20.88 l5.72 0 l4.64 14 l5.12 -14 l5 0 l5.16 14 z M161.07999999999998 26.64 l0 4.8 l-12.4 0 l0 -4.8 l12.4 0 z M177.32 18.88 c3.96 0 7.88 2.6 7.88 9.16 l0 11.96 l-5.72 0 l0 -11.56 c0 -3.4 -1.32 -4.56 -3.52 -4.56 c-3.04 0 -4.84 2.88 -5.28 4.32 l0 11.8 l-5.72 0 l0 -28.28 l5.72 0 l0 11.32 c0.4 -1.08 2.64 -4.16 6.64 -4.16 z M204.44 19.2 l5.72 0 l0 20.8 l-5.72 0 l0 -2.56 c-0.12 0.84 -2.16 2.96 -5.76 2.96 c-4.76 0 -10.28 -3.44 -10.28 -10.84 c0 -7.16 5.52 -10.72 10.28 -10.72 c3.6 0 5.64 2.24 5.76 2.68 l0 -2.32 z M199.48 35.32 c2.8 0 5.24 -1.92 5.24 -5.76 c0 -3.72 -2.44 -5.64 -5.24 -5.64 c-2.88 0 -5.52 1.96 -5.52 5.64 c0 3.8 2.64 5.76 5.52 5.76 z M224.48000000000002 18.84 c3.8 0 7 1.64 8.96 5 l-4.4 2.04 c-1.12 -1.12 -2.2 -1.96 -4.48 -1.96 c-2.6 0 -5.36 1.96 -5.36 5.72 c0 3.72 2.76 5.64 5.36 5.64 c2.28 0 3.36 -0.8 4.48 -1.92 l4.44 2.04 c-2 3.36 -5.12 4.92 -9 4.92 c-4.64 0 -10.84 -3.36 -10.84 -10.68 c0 -7.24 6.2 -10.8 10.84 -10.8 z M251.28 40 l-7.16 -8.32 l-1.64 1.72 l0 6.6 l-5.72 0 l0 -7.4 l0 -20.88 l5.72 0 l0 14.68 l6.68 -7.2 l6.84 0 l-8.36 8.76 l10.24 12.04 l-6.6 0 z"></path></g>
			</g>
		</svg>
	